<svg width="30" height="30" viewBox="0 0 30 30" fill="none" xmlns="http://www.w3.org/2000/svg">
<path d="M16.4 9.4C16.4 8.62681 15.7732 8 15 8C14.2268 8 13.6 8.62681 13.6 9.4V13.6H9.4C8.62681 13.6 8 14.2268 8 15C8 15.7732 8.62681 16.4 9.4 16.4H13.6V20.6C13.6 21.3732 14.2268 22 15 22C15.7732 22 16.4 21.3732 16.4 20.6V16.4H20.6C21.3732 16.4 22 15.7732 22 15C22 14.2268 21.3732 13.6 20.6 13.6H16.4V9.4Z" fill="#223635"/>
<path d="M20.5868 1.66669H9.41341C4.56008 1.66669 1.66675 4.56002 1.66675 9.41335V20.5734C1.66675 25.44 4.56008 28.3334 9.41341 28.3334H20.5734C25.4268 28.3334 28.3201 25.44 28.3201 20.5867V9.41335C28.3334 4.56002 25.4401 1.66669 20.5868 1.66669ZM20.3334 16H16.0001V20.3334C16.0001 20.88 15.5467 21.3334 15.0001 21.3334C14.4534 21.3334 14.0001 20.88 14.0001 20.3334V16H9.66675C9.12008 16 8.66675 15.5467 8.66675 15C8.66675 14.4534 9.12008 14 9.66675 14H14.0001V9.66669C14.0001 9.12002 14.4534 8.66669 15.0001 8.66669C15.5467 8.66669 16.0001 9.12002 16.0001 9.66669V14H20.3334C20.8801 14 21.3334 14.4534 21.3334 15C21.3334 15.5467 20.8801 16 20.3334 16Z" fill="#EBE3D1"/>
</svg>
