<svg width="18" height="14" viewBox="0 0 18 14" fill="none" xmlns="http://www.w3.org/2000/svg">
<path fill-rule="evenodd" clip-rule="evenodd" d="M3.47604 0.636364C3.47604 0.284913 3.86511 0 4.34505 0C4.82498 0 5.21406 0.284913 5.21406 0.636364V1.27273H12.1661V0.636364C12.1661 0.284913 12.5552 0 13.0351 0C13.5151 0 13.9042 0.284913 13.9042 0.636364V1.27273H14.7732C16.213 1.27273 17.3802 2.12746 17.3802 3.18182V12.0909C17.3802 13.1453 16.213 14 14.7732 14H2.60703C1.16721 14 0 13.1453 0 12.0909V3.18182C0 2.12746 1.16721 1.27273 2.60703 1.27273H3.47604V0.636364ZM12.1661 2.54545V3.18182C12.1661 3.53327 12.5552 3.81818 13.0351 3.81818C13.5151 3.81818 13.9042 3.53327 13.9042 3.18182V2.54545H14.7732C15.2531 2.54545 15.6422 2.83037 15.6422 3.18182V5.09091H1.73802V3.18182C1.73802 2.83037 2.12709 2.54545 2.60703 2.54545H3.47604V3.18182C3.47604 3.53327 3.86511 3.81818 4.34505 3.81818C4.82498 3.81818 5.21406 3.53327 5.21406 3.18182V2.54545H12.1661ZM1.73802 6.36364V12.0909C1.73802 12.4424 2.12709 12.7273 2.60703 12.7273H14.7732C15.2531 12.7273 15.6422 12.4424 15.6422 12.0909V6.36364H1.73802Z" fill="#BCC7C1"/>
</svg>
