<svg width="30" height="15" viewBox="0 0 30 15" fill="none" xmlns="http://www.w3.org/2000/svg">
<path fill-rule="evenodd" clip-rule="evenodd" d="M2.14286 12.5C0.9594 12.5 0 13.0596 0 13.75C0 14.4404 0.9594 15 2.14286 15H27.8571C29.0406 15 30 14.4404 30 13.75C30 13.0596 29.0406 12.5 27.8571 12.5H2.14286Z" fill="#335266"/>
<path fill-rule="evenodd" clip-rule="evenodd" d="M0 7.5C0 6.80963 0.9594 6.25 2.14286 6.25H27.8571C29.0406 6.25 30 6.80963 30 7.5C30 8.19038 29.0406 8.75 27.8571 8.75H2.14286C0.9594 8.75 0 8.19038 0 7.5Z" fill="#335266"/>
<path d="M2.14286 0C0.9594 0 0 0.55965 0 1.25C0 1.94035 0.9594 2.5 2.14286 2.5H27.8571C29.0406 2.5 30 1.94035 30 1.25C30 0.55965 29.0406 0 27.8571 0H2.14286Z" fill="#335266"/>
</svg>
