<svg width="30" height="30" viewBox="0 0 30 30" fill="none" xmlns="http://www.w3.org/2000/svg">
<g clip-path="url(#clip0_794_1136)">
<path d="M19.1667 3.60498C19.1667 7.24498 10.9692 9.14831 10.9692 14.61C10.9692 16.43 11.8734 18.3333 12.7834 18.3333H25.5259C26.4367 18.3333 27.3526 16.43 27.3526 14.61C27.3526 9.14748 19.1667 7.24498 19.1667 3.60498Z" fill="#223635"/>
<path d="M29.1667 28.1792C29.1667 29.185 28.9259 30 27.3459 30H10.9626C9.38341 30 9.16675 29.185 9.16675 28.1792V19.0783C9.16675 18.0733 9.38341 17.5 10.9634 17.5H27.3467C28.9259 17.5 29.1667 18.0733 29.1667 19.0783V28.1792Z" fill="#EBE3D1"/>
<path d="M19.1666 28.3333C19.1666 28.7753 18.991 29.1993 18.6784 29.5118C18.3659 29.8244 17.9419 30 17.4999 30H2.49992C2.05789 30 1.63397 29.8244 1.32141 29.5118C1.00885 29.1993 0.833252 28.7753 0.833252 28.3333V27.5C0.833252 27.058 1.00885 26.634 1.32141 26.3215C1.63397 26.0089 2.05789 25.8333 2.49992 25.8333H17.4999C17.9419 25.8333 18.3659 26.0089 18.6784 26.3215C18.991 26.634 19.1666 27.058 19.1666 27.5V28.3333Z" fill="#EBE3D1"/>
<path d="M21.6667 24.1667C21.6667 21.6667 20.0867 20 19.1667 20C18.2467 20 16.6667 21.6667 16.6667 24.1667V30H21.6667V24.1667ZM15.0001 26.1108C15.0001 24.4442 13.9467 23.3333 13.3334 23.3333C12.7201 23.3333 11.6667 24.4442 11.6667 26.1108V30H15.0001V26.1108ZM26.6667 26.1108C26.6667 24.4442 25.6134 23.3333 25.0001 23.3333C24.3867 23.3333 23.3334 24.4442 23.3334 26.1108V30H26.6667V26.1108Z" fill="#365569"/>
<path d="M7.5 28.3333C7.5 28.7754 7.3244 29.1993 7.01184 29.5118C6.69928 29.8244 6.27536 30 5.83333 30H4.16667C3.72464 30 3.30072 29.8244 2.98816 29.5118C2.67559 29.1993 2.5 28.7754 2.5 28.3333V6.66667C2.5 6.22464 2.67559 5.80072 2.98816 5.48816C3.30072 5.17559 3.72464 5 4.16667 5H5.83333C6.27536 5 6.69928 5.17559 7.01184 5.48816C7.3244 5.80072 7.5 6.22464 7.5 6.66667V28.3333Z" fill="#EBE3D1"/>
<path d="M4.99574 0.271667C4.99574 1.8025 2.63574 2.70333 2.63574 5.00083C2.63574 5.76667 2.89574 6.6675 3.15824 6.6675H6.82658C7.08824 6.6675 7.35241 5.76667 7.35241 5.00083C7.35241 2.70333 4.99574 1.8025 4.99574 0.271667Z" fill="#223635"/>
<path d="M8.33341 9.99998C8.33341 10.221 8.24562 10.433 8.08934 10.5892C7.93306 10.7455 7.72109 10.8333 7.50008 10.8333H2.50008C2.27907 10.8333 2.06711 10.7455 1.91083 10.5892C1.75455 10.433 1.66675 10.221 1.66675 9.99998C1.66675 9.77897 1.75455 9.567 1.91083 9.41072C2.06711 9.25444 2.27907 9.16665 2.50008 9.16665H7.50008C7.72109 9.16665 7.93306 9.25444 8.08934 9.41072C8.24562 9.567 8.33341 9.77897 8.33341 9.99998ZM8.33341 6.66665C8.33341 6.88766 8.24562 7.09962 8.08934 7.2559C7.93306 7.41218 7.72109 7.49998 7.50008 7.49998H2.50008C2.27907 7.49998 2.06711 7.41218 1.91083 7.2559C1.75455 7.09962 1.66675 6.88766 1.66675 6.66665C1.66675 6.44563 1.75455 6.23367 1.91083 6.07739C2.06711 5.92111 2.27907 5.83331 2.50008 5.83331H7.50008C7.72109 5.83331 7.93306 5.92111 8.08934 6.07739C8.24562 6.23367 8.33341 6.44563 8.33341 6.66665Z" fill="#365569"/>
</g>
<defs>
<clipPath id="clip0_794_1136">
<rect width="30" height="30" fill="white"/>
</clipPath>
</defs>
</svg>
