<svg width="30" height="30" viewBox="0 0 30 30" fill="none" xmlns="http://www.w3.org/2000/svg">
<path d="M13.125 26.875C13.125 26.875 11.25 26.875 11.25 24.8125C11.25 22.75 13.125 16.5625 20.625 16.5625C28.125 16.5625 30 22.75 30 24.8125C30 26.875 28.125 26.875 28.125 26.875H13.125ZM20.625 14.5C22.1168 14.5 23.5476 13.8481 24.6025 12.6877C25.6574 11.5273 26.25 9.95353 26.25 8.3125C26.25 6.67147 25.6574 5.09766 24.6025 3.93728C23.5476 2.7769 22.1168 2.125 20.625 2.125C19.1332 2.125 17.7024 2.7769 16.6475 3.93728C15.5926 5.09766 15 6.67147 15 8.3125C15 9.95353 15.5926 11.5273 16.6475 12.6877C17.7024 13.8481 19.1332 14.5 20.625 14.5Z" fill="#EBE3D1"/>
<path fill-rule="evenodd" clip-rule="evenodd" d="M9.78 26.875C9.50204 26.2311 9.36342 25.5252 9.375 24.8125C9.375 22.0178 10.65 19.1407 13.005 17.14C11.8295 16.7416 10.6049 16.5468 9.375 16.5625C1.875 16.5625 0 22.75 0 24.8125C0 26.875 1.875 26.875 1.875 26.875H9.78Z" fill="#223635"/>
<path d="M8.4375 14.5C9.6807 14.5 10.873 13.9568 11.7521 12.9898C12.6311 12.0228 13.125 10.7113 13.125 9.34375C13.125 7.97623 12.6311 6.66472 11.7521 5.69773C10.873 4.73075 9.6807 4.1875 8.4375 4.1875C7.1943 4.1875 6.00201 4.73075 5.12294 5.69773C4.24386 6.66472 3.75 7.97623 3.75 9.34375C3.75 10.7113 4.24386 12.0228 5.12294 12.9898C6.00201 13.9568 7.1943 14.5 8.4375 14.5Z" fill="#223635"/>
</svg>
