<svg width="30" height="30" viewBox="0 0 30 30" fill="none" xmlns="http://www.w3.org/2000/svg">
<path d="M7 27C7 27 5 27 5 24.9167C5 22.8333 7 16.5833 15 16.5833C23 16.5833 25 22.8333 25 24.9167C25 27 23 27 23 27H7ZM15 14.5C16.5913 14.5 18.1174 13.8415 19.2426 12.6694C20.3679 11.4973 21 9.9076 21 8.25C21 6.5924 20.3679 5.00269 19.2426 3.83058C18.1174 2.65848 16.5913 2 15 2C13.4087 2 11.8826 2.65848 10.7574 3.83058C9.63214 5.00269 9 6.5924 9 8.25C9 9.9076 9.63214 11.4973 10.7574 12.6694C11.8826 13.8415 13.4087 14.5 15 14.5Z" fill="#EBE3D1"/>
<path d="M8 5C8 3.34315 9.34315 2 11 2H19C20.6569 2 22 3.34315 22 5V6C22 6.55228 21.5523 7 21 7H9C8.44772 7 8 6.55228 8 6V5Z" fill="#223635"/>
</svg>
