<svg width="19" height="22" viewBox="0 0 19 22" fill="none" xmlns="http://www.w3.org/2000/svg">
<g clip-path="url(#clip0_22_827)">
<path d="M13.3084 12.5017H12.9731V11.6533C12.9731 9.31599 10.7484 7.5516 9.86014 6.94023C9.85724 6.86058 9.8374 6.78354 9.80206 6.71741C9.95396 6.59456 10.0483 6.38504 10.0483 6.15815C10.0483 5.93132 9.95396 5.72174 9.80206 5.59872C9.84031 5.5272 9.86133 5.44298 9.86133 5.35631C9.86133 5.20395 9.79867 5.06507 9.69555 4.98402L9.56555 3.68109C9.56137 3.63934 9.53329 3.608 9.49998 3.608C9.46666 3.608 9.43855 3.63934 9.43441 3.68109L9.30441 4.98402C9.20129 5.06507 9.13863 5.20395 9.13863 5.35631C9.13863 5.44303 9.1596 5.52725 9.19785 5.59872C9.046 5.72169 8.95169 5.93126 8.95169 6.15815C8.95169 6.38504 9.046 6.59456 9.19785 6.71741C9.16251 6.78354 9.14272 6.86058 9.13982 6.94023C8.25155 7.5516 6.02688 9.31599 6.02688 11.6533V12.5017H5.69157C5.61005 12.5017 5.54395 12.5852 5.54395 12.6882V14.506C5.54395 14.609 5.61005 14.6925 5.69157 14.6925H5.85929V18.3843H7.1807V18.2165C7.1807 16.5213 9.49994 15.4104 9.49994 15.4104C9.49994 15.4104 11.8193 16.5213 11.8193 18.2165V18.3843H13.1407V14.6925H13.3084C13.3899 14.6925 13.456 14.609 13.456 14.506V12.6882C13.456 12.5852 13.3899 12.5017 13.3084 12.5017ZM7.05604 14.1006H6.84293H6.62981V13.4925C6.62981 13.2516 6.74827 13.0937 6.84293 13.0937C6.93763 13.0937 7.05604 13.2516 7.05604 13.4925V14.1006ZM8.38454 14.1006H8.17143H7.95836V13.4925C7.95836 13.2516 8.07673 13.0937 8.17143 13.0937C8.26618 13.0937 8.38454 13.2516 8.38454 13.4925V14.1006ZM9.713 14.1006H9.49998H9.28691V13.4925C9.28691 13.2516 9.40523 13.0937 9.49998 13.0937C9.59468 13.0937 9.713 13.2516 9.713 13.4925V14.1006ZM11.0415 14.1006H10.8284H10.6154V13.4925C10.6154 13.2516 10.7337 13.0937 10.8284 13.0937C10.9231 13.0937 11.0415 13.2516 11.0415 13.4925V14.1006ZM12.3701 14.1006H12.1569H11.9438V13.4925C11.9438 13.2516 12.0623 13.0937 12.1569 13.0937C12.2517 13.0937 12.3701 13.2516 12.3701 13.4925V14.1006Z" fill="#BCC7C1"/>
<path d="M18.8987 14.3589H18.6688V13.7773C18.6688 12.1935 17.1788 10.9935 16.5562 10.5612C16.5563 10.5607 16.5563 10.5602 16.5563 10.5597C16.5563 10.5038 16.5446 10.4493 16.5231 10.4011C16.6231 10.3106 16.6844 10.166 16.6844 10.0101C16.6844 9.85414 16.623 9.70952 16.523 9.61901C16.5446 9.5708 16.5563 9.51631 16.5563 9.46042C16.5563 9.35104 16.5131 9.25101 16.4414 9.18978L16.3534 8.30856C16.3492 8.26681 16.3211 8.23547 16.2878 8.23547C16.2545 8.23547 16.2264 8.26681 16.2223 8.30856L16.1344 9.18973C16.0626 9.25085 16.0194 9.35093 16.0194 9.46037C16.0194 9.51625 16.0311 9.57075 16.0526 9.6189C15.9526 9.70941 15.8911 9.85408 15.8911 10.0101C15.8911 10.166 15.9525 10.3106 16.0526 10.4011C16.0311 10.4492 16.0194 10.5037 16.0194 10.5597C16.0194 10.5602 16.0195 10.5606 16.0195 10.5611C15.397 10.9934 13.9069 12.1934 13.9069 13.7773V14.3589H13.6769C13.621 14.3589 13.5757 14.4162 13.5757 14.4867V15.7331C13.5757 15.8036 13.621 15.8609 13.6769 15.8609H13.7918V18.392H14.6978V18.2769C14.6978 17.1147 16.2878 16.3531 16.2878 16.3531C16.2878 16.3531 17.8779 17.1147 17.8779 18.2769V18.392H18.7839V15.8609H18.8988C18.9547 15.8609 19 15.8036 19 15.7331V14.4867C18.9999 14.4162 18.9546 14.3589 18.8987 14.3589ZM14.6122 15.4551H14.4662H14.3201V15.0381C14.3201 14.8729 14.4012 14.7648 14.4662 14.7648C14.5311 14.7648 14.6122 14.8729 14.6122 15.0381V15.4551ZM15.5231 15.4551H15.377H15.2309V15.0381C15.2309 14.8729 15.3121 14.7648 15.377 14.7648C15.4419 14.7648 15.5231 14.8729 15.5231 15.0381V15.4551ZM16.4339 15.4551H16.2878H16.1417V15.0381C16.1417 14.8729 16.2228 14.7648 16.2878 14.7648C16.3527 14.7648 16.4339 14.8729 16.4339 15.0381V15.4551ZM17.3446 15.4551H17.1986H17.0524V15.0381C17.0524 14.8729 17.1336 14.7648 17.1986 14.7648C17.2635 14.7648 17.3446 14.8729 17.3446 15.0381V15.4551ZM18.2554 15.4551H18.1093H17.9632V15.0381C17.9632 14.8729 18.0444 14.7648 18.1093 14.7648C18.1742 14.7648 18.2554 14.8729 18.2554 15.0381V15.4551Z" fill="#BCC7C1"/>
<path d="M5.32306 14.3589H5.09302V13.7773C5.09302 12.1934 3.60288 10.9933 2.98047 10.5611C2.98047 10.5606 2.98051 10.5602 2.98051 10.5597C2.98051 10.5038 2.96888 10.4493 2.94737 10.4012C3.04745 10.3106 3.10884 10.166 3.10884 10.0101C3.10884 9.85414 3.04745 9.70947 2.94733 9.61896C2.96888 9.57081 2.98051 9.51631 2.98051 9.46043C2.98051 9.35099 2.93728 9.25091 2.86554 9.18979L2.77767 8.30862C2.77348 8.26687 2.74541 8.23553 2.7121 8.23553C2.67878 8.23553 2.65067 8.26687 2.64652 8.30862L2.55852 9.18984C2.48678 9.25108 2.4435 9.3511 2.4435 9.46048C2.4435 9.51632 2.45523 9.57081 2.47682 9.61907C2.37674 9.70958 2.3154 9.85425 2.3154 10.0102C2.3154 10.1661 2.37674 10.3107 2.47677 10.4012C2.45518 10.4494 2.4435 10.5039 2.4435 10.5598C2.4435 10.5603 2.44355 10.5608 2.44355 10.5613C1.821 10.9936 0.330992 12.1936 0.330992 13.7774V14.359H0.101179C0.0453015 14.359 0 14.4162 0 14.4868V15.7331C0 15.8037 0.0453015 15.8609 0.101179 15.8609H0.216107V18.392H1.12214V18.2769C1.12214 17.1147 2.71205 16.3532 2.71205 16.3532C2.71205 16.3532 4.3021 17.1148 4.3021 18.2769V18.392H5.20804V15.8609H5.32301C5.37889 15.8609 5.42419 15.8037 5.42419 15.7331V14.4868C5.42428 14.4162 5.37898 14.3589 5.32306 14.3589ZM1.03665 15.4551H0.890518H0.744522V15.0381C0.744522 14.8729 0.825606 14.7648 0.890518 14.7648C0.955429 14.7648 1.03665 14.8729 1.03665 15.0381V15.4551ZM1.94739 15.4551H1.80131H1.65531V15.0381C1.65531 14.8729 1.73644 14.7648 1.80131 14.7648C1.86631 14.7648 1.94739 14.8729 1.94739 15.0381V15.4551ZM2.85814 15.4551H2.7121H2.56597V15.0381C2.56597 14.8729 2.64718 14.7648 2.7121 14.7648C2.77705 14.7648 2.85814 14.8729 2.85814 15.0381V15.4551ZM3.76906 15.4551H3.62288H3.4768V15.0381C3.4768 14.8729 3.55797 14.7648 3.62288 14.7648C3.6878 14.7648 3.76906 14.8729 3.76906 15.0381V15.4551ZM4.6798 15.4551H4.53363H4.38763V15.0381C4.38763 14.8729 4.46876 14.7648 4.53363 14.7648C4.59867 14.7648 4.6798 14.8729 4.6798 15.0381V15.4551Z" fill="#BCC7C1"/>
</g>
<defs>
<clipPath id="clip0_22_827">
<rect width="19" height="24" fill="white" transform="translate(0 -1)"/>
</clipPath>
</defs>
</svg>
