<svg width="17" height="14" viewBox="0 0 17 14" fill="none" xmlns="http://www.w3.org/2000/svg">
<g clip-path="url(#clip0_127_1676)">
<path fill-rule="evenodd" clip-rule="evenodd" d="M7.65468 1.60131e-07H9.34533C10.5234 -6.83987e-06 11.4604 -6.78003e-06 12.2159 0.0516602C12.9896 0.104573 13.6489 0.215285 14.2509 0.472864C15.1824 0.871339 15.9419 1.4968 16.4258 2.26391C16.7386 2.75977 16.873 3.30268 16.9373 3.93987C17 4.56205 17 5.33365 17 6.30385V7.69615C17 8.66635 17 9.43796 16.9373 10.0601C16.873 10.6973 16.7386 11.2403 16.4258 11.7361C15.9419 12.5032 15.1824 13.1286 14.2509 13.5271C13.6489 13.7847 12.9896 13.8954 12.2159 13.9483C11.4604 14 10.5234 14 9.34533 14H7.65468C6.47657 14 5.53964 14 4.78413 13.9483C4.01039 13.8954 3.35115 13.7847 2.74903 13.5271C1.81755 13.1286 1.05805 12.5032 0.574192 11.7361C0.261418 11.2403 0.126982 10.6973 0.0627303 10.0601C-8.23289e-06 9.43796 -8.30555e-06 8.66635 1.94445e-07 7.69615V6.30385C-8.30555e-06 5.33364 -8.23289e-06 4.56205 0.0627303 3.93987C0.126982 3.30268 0.261418 2.75977 0.574192 2.26391C1.05805 1.4968 1.81755 0.871339 2.74903 0.472864C3.35115 0.215285 4.01039 0.104573 4.78413 0.0516602C5.53963 -6.78003e-06 6.47657 -6.83987e-06 7.65468 1.60131e-07ZM4.92482 1.44686C4.25812 1.49245 3.85171 1.57877 3.53269 1.71525C2.9117 1.9809 2.40537 2.39787 2.0828 2.90927C1.91707 3.17199 1.81226 3.50669 1.7569 4.05574C1.70068 4.61317 1.7 5.32664 1.7 6.335V7.665C1.7 8.67335 1.70068 9.38679 1.7569 9.94427C1.81226 10.4934 1.91707 10.828 2.0828 11.0907C2.40537 11.6021 2.9117 12.0191 3.53269 12.2848C3.85171 12.4212 4.25812 12.5075 4.92482 12.5532C5.60171 12.5994 6.46807 12.6 7.6925 12.6H9.3075C10.5319 12.6 11.3982 12.5994 12.0752 12.5532C12.7419 12.5075 13.1483 12.4212 13.4673 12.2848C14.0883 12.0191 14.5947 11.6021 14.9172 11.0907C15.0829 10.828 15.1877 10.4934 15.2431 9.94427C15.2993 9.38679 15.3 8.67335 15.3 7.665V6.335C15.3 5.32664 15.2993 4.61317 15.2431 4.05574C15.1877 3.50669 15.0829 3.17199 14.9172 2.90927C14.5947 2.39787 14.0883 1.9809 13.4673 1.71525C13.1483 1.57877 12.7419 1.49245 12.0752 1.44686C11.3982 1.40056 10.5319 1.4 9.3075 1.4H7.6925C6.46807 1.4 5.60171 1.40056 4.92482 1.44686ZM8.35414 3.33015C8.8236 3.33015 9.20414 3.64355 9.20414 4.03015V7.50715L12.202 8.44571C12.6409 8.58305 12.8614 8.98737 12.6945 9.34871C12.5277 9.71012 12.0368 9.8917 11.598 9.75429L8.05213 8.6443C7.72225 8.54098 7.50414 8.28058 7.50414 7.98994V4.03015C7.50414 3.64355 7.88469 3.33015 8.35414 3.33015Z" fill="#BCC7C1"/>
</g>
<defs>
<clipPath id="clip0_127_1676">
<rect width="17" height="14" fill="white"/>
</clipPath>
</defs>
</svg>
